<svg xmlns="http://www.w3.org/2000/svg" xmlns:bx="https://boxy-svg.com" viewBox="79.675 59.554 332.686 310.233">
  <defs>
    <radialGradient gradientUnits="userSpaceOnUse" cx="223.936" cy="225.783" r="8.164" id="gradient-1">
      <stop offset="0" style="stop-color: rgba(255, 0, 230, 1)"/>
      <stop offset="1" style="stop-color: rgba(153, 0, 138, 1)"/>
    </radialGradient>
  </defs>
  <ellipse style="stroke: rgb(0, 0, 0); fill: rgb(255, 255, 255);" cx="245.738" cy="214.234" rx="162.607" ry="151.308"/>
  <path d="M 401.345 142.7 L 436.742 203.561 L 365.947 203.561 L 401.345 142.7 Z" style="stroke: rgb(0, 0, 0); fill: rgb(47, 43, 49); paint-order: fill; fill-rule: nonzero;" transform="matrix(0.704898, 0.709308, -0.662242, 0.752259, 158.556274, -239.893677)" bx:shape="triangle 365.947 142.7 70.795 60.861 0.5 0 1@2729ac32"/>
  <g style="" transform="matrix(1.390419, -0.074274, -0.337212, 0.894832, -10.600935, 45.024494)">
    <path d="M 88.523 136.301 L 117.031 228.121 L 60.014 228.121 L 88.523 136.301 Z" style="stroke: rgb(0, 0, 0); fill: rgb(47, 43, 49);" transform="matrix(0.803036, -0.59593, 0.711556, 0.717231, -31.054504, 85.499008)" bx:shape="triangle 60.014 136.301 57.017 91.82 0.5 0 1@31089108"/>
  </g>
  <g transform="matrix(1, 0, 0, 0.663666, -4.490922, 63.009697)" style="">
    <ellipse style="stroke: rgb(47, 43, 49); fill: rgb(47, 43, 49); paint-order: fill; fill-rule: nonzero;" cx="248" cy="247.874" rx="99.42" ry="99.966"/>
  </g>
  <path d="M 122.524 47.592 L 136.318 71.658 L 108.73 71.658 L 122.524 47.592 Z" style="stroke: rgb(0, 0, 0); fill: rgb(204, 141, 205);" transform="matrix(0.956244, 0.292571, -0.802807, 0.800133, 261.235168, 84.968513)" bx:shape="triangle 108.73 47.592 27.588 24.066 0.5 0 1@1061174a"/>
  <path d="M 122.524 47.592 L 136.318 71.658 L 108.73 71.658 L 122.524 47.592 Z" style="stroke: rgb(0, 0, 0); fill: rgb(204, 141, 205);" transform="matrix(-0.956244, 0.292571, 0.802807, 0.800133, 228.682755, 87.572083)" bx:shape="triangle 108.73 47.592 27.588 24.066 0.5 0 1@1061174a" bx:origin="9.237 -0.26"/>
  <path style="stroke: rgb(0, 0, 0); fill: rgb(196, 255, 46);" d="M 159.37 196.73 C 155.031 198.709 157.493 204.275 159.748 201.861 C 163.807 197.516 155.345 191.068 152.279 194.612 C 146.723 201.036 153.63 211.57 160.596 205.622 C 166.527 200.558 159.455 185.736 150.943 190.203 C 138.122 196.93 148.16 218.706 159.474 213.119 C 176.37 204.774 161.524 178.366 145.025 185.122 C 126.984 192.51 142.566 228.695 158.819 217.477 C 167.168 211.714 173.35 195.658 163.363 188.148 C 159.54 185.272 153.837 186.03 149.37 185.812 C 146.532 185.673 141.996 184.712 139.431 186.322 C 133.45 190.077 131.689 211.346 137.787 216.092 C 143.633 220.642 154.118 217.329 160.284 215.293"/>
  <path style="stroke: rgb(0, 0, 0); fill: rgb(196, 255, 46);" d="M 342.591 201.213 C 349.791 195.325 339.458 195.39 342.97 201.602 C 343.545 202.618 344.02 204.778 345.491 204.611 C 356.322 203.379 340.868 185.531 338.63 196.045 C 338.33 197.45 337.997 198.96 337.841 200.402 C 337.662 202.046 337.333 204.085 337.641 205.738 C 338.853 212.237 351.852 207.371 353.325 203.192 C 356.836 193.234 341.002 188.899 334.858 194.312 C 323.531 204.292 341.355 221.584 353.087 211.834 C 366.445 200.732 348.388 183.124 334.824 189.11 C 329.913 191.278 327.883 203.212 329.707 207.543 C 332.368 213.862 348.16 219.768 354.468 216.623 C 372.415 207.677 355.261 179.839 340.956 188.85"/>
  <path style="stroke: rgb(0, 0, 0); fill: rgb(196, 255, 46);" d="M 160.544 195.978 C 160.308 190.172 158.625 181.969 160.234 176.356 C 164.598 161.126 188.891 162.14 201.258 162.14 C 207.026 162.14 221.438 165.096 226.376 160.482 C 228.35 158.637 226.207 154.952 226.328 152.199 C 227.027 136.415 224.431 127.174 241.006 121.975 C 245.435 120.585 248.366 120.401 253.066 120.188 C 283.164 118.834 299.611 127.945 322.461 147.706 C 330.631 154.771 341.804 167.176 339.382 178.98 C 338.944 181.112 337.54 182.866 336.245 184.514 C 329.255 193.417 332.631 192.496 324.362 182.166 C 320.207 176.977 318.742 175.311 314.806 169.966 C 302.051 152.642 295.35 136.888 272.069 132.073 C 268.125 131.259 264.167 130.992 260.182 130.758 C 256.898 130.566 252.113 129.807 248.926 130.738 C 230.125 136.236 245.005 171.36 227.597 180.246 C 208.321 190.085 165.337 152.767 164.365 190.538" transform="matrix(0.996353, 0.085331, -0.085331, 0.996353, 14.394267, -20.724991)"/>
  <path d="M 217.227 232.561 L 217.227 218.531 L 220.021 218.531 L 223.342 228.465 Q 223.801 229.853 224.012 230.542 Q 224.251 229.776 224.759 228.293 L 228.118 218.531 L 230.616 218.531 L 230.616 232.561 L 228.826 232.561 L 228.826 220.818 L 224.749 232.561 L 223.074 232.561 L 219.016 220.617 L 219.016 232.561 Z" transform="matrix(6.191624, 0, 0, 3.769282, -1143.729492, -623.638977)" style="fill: url(#gradient-1); fill-opacity: 0.78; white-space: pre;"/>
</svg>
